<?xml version="1.0" standalone="no"?>
<!DOCTYPE svg PUBLIC "-//W3C//DTD SVG 20010904//EN"
 "http://www.w3.org/TR/2001/REC-SVG-20010904/DTD/svg10.dtd">
<svg version="1.0" xmlns="http://www.w3.org/2000/svg"
 width="256.000000pt" height="68.000000pt" viewBox="0 0 256.000000 68.000000"
 preserveAspectRatio="xMidYMid meet">

<g transform="translate(0.000000,68.000000) scale(0.100000,-0.100000)"
fill="#000000" stroke="none">
<path d="M162 545 c-18 -19 -43 -37 -57 -41 -21 -5 -25 -12 -25 -40 0 -40 11
-42 58 -14 l32 20 0 -105 0 -105 45 0 45 0 0 160 0 160 -32 0 c-25 0 -42 -9
-66 -35z"/>
<path d="M2336 544 c-15 -19 -39 -37 -52 -40 -19 -5 -24 -13 -24 -40 0 -40 11
-42 58 -14 l32 20 0 -105 0 -105 45 0 45 0 0 160 0 160 -37 -1 c-31 0 -44 -7
-67 -35z"/>
</g>
</svg>
